Crispy Condensed-ExtraLight.ufo
<glyph name="exclam" format="2">
  <advance width="172"/>
  <unicode hex="0021"/>
  <outline>
    <contour>
      <point x="44" y="105" type="line" identifier="1m237t4hyw"/>
      <point x="120" y="105" type="line" identifier="S4rO5KuHiL"/>
      <point x="129" y="150" type="line"/>
      <point x="129" y="1600" type="line" identifier="zfocDyDTCM"/>
      <point x="53" y="1600" type="line" identifier="v7N4yg5XNk"/>
      <point x="44" y="1569" type="line"/>
    </contour>
    <component base="period" xOffset="12"/>
  </outline>
</glyph>
<glyph name="comma" format="2">
  <advance width="237"/>
  <unicode hex="002C"/>
  <outline>
    <contour>
      <point x="161" y="-194" type="line"/>
      <point x="188" y="0" type="line"/>
      <point x="188" y="63" type="line"/>
      <point x="115" y="63" type="line"/>
      <point x="105" y="45" type="line"/>
      <point x="105" y="0" type="line"/>
      <point x="149" y="0" type="line"/>
      <point x="149" y="-194" type="line"/>
    </contour>
  </outline>
</glyph>
<glyph name="period" format="2">
  <advance width="184"/>
  <unicode hex="002E"/>
  <outline>
    <contour>
      <point x="122" y="0" type="line" identifier="1m237t4hyw"/>
      <point x="132" y="18" type="line" identifier="v7N4yg5XNk"/>
      <point x="132" y="73" type="line"/>
      <point x="53" y="73" type="line" identifier="zfocDyDTCM"/>
      <point x="43" y="56" type="line"/>
      <point x="43" y="0" type="line" identifier="S4rO5KuHiL"/>
    </contour>
  </outline>
</glyph>
<glyph name="two" format="2">
  <advance width="729"/>
  <unicode hex="0032"/>
  <outline>
    <contour>
      <point x="63" y="0" type="line"/>
      <point x="666" y="0" type="line" identifier="pzdvPTirLJ"/>
      <point x="666" y="377" type="line"/>
      <point x="582" y="377" type="line"/>
      <point x="582" y="62" type="line"/>
      <point x="149" y="62" type="line"/>
      <point x="149" y="753" type="line"/>
      <point x="659" y="753" type="line" identifier="yyb1NCCI5w"/>
      <point x="659" y="1600" type="line" identifier="5FogYRSgkk"/>
      <point x="67" y="1600" type="line" identifier="svlFvrau4c"/>
      <point x="67" y="1143" type="line" identifier="LQ9fBsTy9K"/>
      <point x="150" y="1143" type="line"/>
      <point x="150" y="1538" type="line"/>
      <point x="576" y="1538" type="line"/>
      <point x="576" y="813" type="line"/>
      <point x="63" y="813" type="line" identifier="teVKnpBcVb"/>
    </contour>
  </outline>
</glyph>
<glyph name="three" format="2">
  <advance width="691"/>
  <unicode hex="0033"/>
  <outline>
    <contour>
      <point x="39" y="0" type="line" identifier="O9abUc1nmN"/>
      <point x="645" y="0" type="line" identifier="kMJYMTfXCq"/>
      <point x="645" y="834" type="line" identifier="su2XmdS8e8"/>
      <point x="599" y="834" type="line" identifier="JQaOzDQqlF"/>
      <point x="599" y="1600" type="line" identifier="xg8x2Ki40p"/>
      <point x="53" y="1600" type="line" identifier="pE1XSRiy68"/>
      <point x="53" y="1133" type="line" identifier="5lNstGRcSF"/>
      <point x="136" y="1133" type="line" identifier="AcE5xKDZfE"/>
      <point x="136" y="1538" type="line" identifier="7ogBYufWpl"/>
      <point x="515" y="1538" type="line" identifier="RHLvSX2Jv6"/>
      <point x="515" y="834" type="line" identifier="iic1IBkDqp"/>
      <point x="151" y="834" type="line" identifier="lRLJEhXMlO"/>
      <point x="151" y="773" type="line" identifier="8aKgEELrVU"/>
      <point x="562" y="773" type="line" identifier="Dm8zjmbhNr"/>
      <point x="562" y="62" type="line" identifier="xv9CFHiFgB"/>
      <point x="122" y="62" type="line" identifier="YajKQV3MHP"/>
      <point x="122" y="400" type="line" identifier="36SchVkwze"/>
      <point x="39" y="400" type="line" identifier="tVui9PiOjA"/>
    </contour>
  </outline>
</glyph>
<glyph name="four" format="2">
  <advance width="749"/>
  <unicode hex="0034"/>
  <outline>
    <contour>
      <point x="532" y="0" type="line"/>
      <point x="615" y="0" type="line"/>
      <point x="615" y="775" type="line"/>
      <point x="686" y="775" type="line"/>
      <point x="686" y="838" type="line"/>
      <point x="615" y="838" type="line"/>
      <point x="615" y="1600" type="line"/>
      <point x="532" y="1600" type="line"/>
      <point x="532" y="838" type="line"/>
      <point x="147" y="838" type="line"/>
      <point x="147" y="933" type="line"/>
      <point x="147" y="1605" type="line"/>
      <point x="64" y="1605" type="line"/>
      <point x="64" y="932" type="line"/>
      <point x="64" y="775" type="line"/>
      <point x="532" y="775" type="line"/>
    </contour>
  </outline>
</glyph>
<glyph name="six" format="2">
  <advance width="731"/>
  <unicode hex="0036"/>
  <outline>
    <contour>
      <point x="63" y="0" type="line" identifier="uiw6aBUf4P"/>
      <point x="668" y="0" type="line" identifier="jtYkxiUX6G"/>
      <point x="668" y="826" type="line" identifier="2G5L37c87I"/>
      <point x="146" y="826" type="line"/>
      <point x="146" y="1371" type="line"/>
      <point x="223" y="1538" type="line"/>
      <point x="584" y="1538" type="line"/>
      <point x="584" y="1134" type="line"/>
      <point x="668" y="1134" type="line" identifier="Wuidbv6mUe"/>
      <point x="668" y="1600" type="line" identifier="oGvEEuxnYv"/>
      <point x="156" y="1600" type="line" identifier="xR3pEHbMJx"/>
      <point x="63" y="1379" type="line" identifier="KnMArb0tv8"/>
    </contour>
    <contour>
      <point x="585" y="764" type="line"/>
      <point x="585" y="62" type="line"/>
      <point x="146" y="62" type="line"/>
      <point x="146" y="764" type="line"/>
    </contour>
  </outline>
</glyph>
<glyph name="nine" format="2">
  <advance width="738"/>
  <unicode hex="0039"/>
  <outline>
    <contour>
      <point x="675" y="1600" type="line" identifier="uiw6aBUf4P"/>
      <point x="64" y="1600" type="line" identifier="jtYkxiUX6G"/>
      <point x="64" y="775" type="line" identifier="2G5L37c87I"/>
      <point x="592" y="775" type="line"/>
      <point x="592" y="62" type="line"/>
      <point x="147" y="62" type="line"/>
      <point x="147" y="309" type="line"/>
      <point x="64" y="309" type="line" identifier="Wuidbv6mUe"/>
      <point x="64" y="0" type="line" identifier="oGvEEuxnYv"/>
      <point x="675" y="0" type="line" identifier="xR3pEHbMJx"/>
    </contour>
    <contour>
      <point x="147" y="836" type="line"/>
      <point x="147" y="1538" type="line"/>
      <point x="592" y="1538" type="line"/>
      <point x="592" y="836" type="line"/>
    </contour>
  </outline>
</glyph>
<glyph name="A" format="2">
  <advance width="746"/>
  <unicode hex="0041"/>
  <outline>
    <contour>
      <point x="63" y="0" type="line" smooth="yes" identifier="jFq8ta4UUc"/>
      <point x="146" y="0" type="line" smooth="yes" identifier="dQz4RxYhG4"/>
      <point x="146" y="746" type="line" smooth="yes" identifier="viYRWe5UN7"/>
      <point x="581" y="746" type="line" smooth="yes" identifier="QVexAlbAcl"/>
      <point x="581" y="0" type="line" smooth="yes" identifier="ZgsCdxNJRW"/>
      <point x="665" y="0" type="line" smooth="yes" identifier="kpn4Kw9J0C"/>
      <point x="665" y="1600" type="line" smooth="yes" identifier="OBZ5Ayed7M"/>
      <point x="157" y="1600" type="line" smooth="yes" identifier="iDT0uyhKrn"/>
      <point x="63" y="1353" type="line" smooth="yes" identifier="dqVr87m3uJ"/>
    </contour>
    <contour>
      <point x="146" y="809" type="line" smooth="yes" identifier="IIRC9Wy7kQ"/>
      <point x="146" y="1347" type="line" smooth="yes" identifier="VufvPdJ075"/>
      <point x="220" y="1537" type="line" smooth="yes" identifier="FsYtJ2vFnp"/>
      <point x="581" y="1537" type="line" smooth="yes" identifier="tUsW8L7b0y"/>
      <point x="581" y="809" type="line" smooth="yes" identifier="eTe9B4y76W"/>
    </contour>
  </outline>
</glyph>
<glyph name="B" format="2">
  <advance width="721"/>
  <unicode hex="0042"/>
  <outline>
    <contour>
      <point x="67" y="0" type="line" identifier="hvY9r8RmLr"/>
      <point x="585" y="0" type="line" identifier="9QFpw7nfq7"/>
      <point x="675" y="235" type="line"/>
      <point x="675" y="831" type="line" identifier="543PerILpr"/>
      <point x="610" y="831" type="line" identifier="zhomauHW30"/>
      <point x="610" y="1600" type="line" identifier="FaP204GrdB"/>
      <point x="67" y="1600" type="line" identifier="JEev70GAj6"/>
    </contour>
    <contour>
      <point x="150" y="62" type="line" identifier="jaMSiLrCua"/>
      <point x="150" y="769" type="line" identifier="XSrxNd2axx"/>
      <point x="592" y="769" type="line" identifier="lsRGatjQja"/>
      <point x="592" y="242" type="line"/>
      <point x="518" y="62" type="line" identifier="xhlDJ3CjD5"/>
    </contour>
    <contour>
      <point x="150" y="830" type="line" identifier="By7dfMihfe"/>
      <point x="150" y="1538" type="line" identifier="1p5hKrurVy"/>
      <point x="532" y="1538" type="line" identifier="Qby8aMtF2X"/>
      <point x="532" y="830" type="line" identifier="xpxyvIzPoc"/>
    </contour>
  </outline>
</glyph>
<glyph name="C" format="2">
  <advance width="711"/>
  <unicode hex="0043"/>
  <outline>
    <contour>
      <point x="64" y="0" type="line" identifier="7lPhzTnk2Z"/>
      <point x="647" y="0" type="line" identifier="qJVLZGnkwh"/>
      <point x="647" y="373" type="line" identifier="nDnDHzAMXL"/>
      <point x="563" y="373" type="line" identifier="QX1V08aTu0"/>
      <point x="563" y="63" type="line" identifier="Y750RHTvDj"/>
      <point x="147" y="63" type="line" identifier="L2LsGnXiZ2"/>
      <point x="147" y="1348" type="line" identifier="sUWsr03vF4"/>
      <point x="222" y="1537" type="line" identifier="dbOUe6OhxL"/>
      <point x="562" y="1537" type="line" identifier="5BjRbcud80"/>
      <point x="562" y="1069" type="line" identifier="fNVDqwQo2o"/>
      <point x="646" y="1069" type="line" identifier="wLqQQx7QVN"/>
      <point x="646" y="1600" type="line" identifier="9eJelv8BOw"/>
      <point x="155" y="1600" type="line" identifier="lfZev3ICaC"/>
      <point x="64" y="1363" type="line" identifier="V1EWIdPahq"/>
    </contour>
  </outline>
</glyph>
<glyph name="D" format="2">
  <advance width="728"/>
  <unicode hex="0044"/>
  <outline>
    <contour>
      <point x="66" y="0" type="line" identifier="IF8msvcgce"/>
      <point x="592" y="0" type="line" identifier="ydeACnPZN4"/>
      <point x="683" y="234" type="line" identifier="wIy2omw5Da"/>
      <point x="683" y="1600" type="line" identifier="gh4oopoKIn"/>
      <point x="66" y="1600" type="line" identifier="hTYdJwlqIh"/>
    </contour>
    <contour>
      <point x="150" y="63" type="line" identifier="YShvMHvurg"/>
      <point x="150" y="1537" type="line" identifier="OGdfzPVlic"/>
      <point x="599" y="1537" type="line" identifier="4w8cXO1HlF"/>
      <point x="599" y="242" type="line" identifier="5OFemp6E2Y"/>
      <point x="524" y="63" type="line" identifier="DiLdvAK6bW"/>
    </contour>
  </outline>
</glyph>
<glyph name="F" format="2">
  <advance width="744"/>
  <unicode hex="0046"/>
  <outline>
    <contour>
      <point x="82" y="0" type="line" identifier="oAgH2tA6DJ"/>
      <point x="165" y="0" type="line" identifier="zCZyMcW5ho"/>
      <point x="165" y="758" type="line" identifier="yHYqkMd7LI"/>
      <point x="586" y="758" type="line" identifier="NmB7yyQuio"/>
      <point x="586" y="821" type="line" identifier="wQk2C8zPHh"/>
      <point x="165" y="821" type="line" identifier="4cFHKQfHDt"/>
      <point x="165" y="1537" type="line" identifier="ZvzwyrcwpS"/>
      <point x="578" y="1537" type="line" identifier="4E754ovOIe"/>
      <point x="578" y="1128" type="line" identifier="vZkeT9KrKR"/>
      <point x="662" y="1128" type="line" identifier="0tk7G4orz6"/>
      <point x="662" y="1600" type="line" identifier="NUrIjqOB7J"/>
      <point x="82" y="1600" type="line" identifier="TBAYuCfUFX"/>
    </contour>
  </outline>
</glyph>
<glyph name="P" format="2">
  <advance width="683"/>
  <unicode hex="0050"/>
  <outline>
    <contour>
      <point x="68" y="0" type="line" identifier="EG08jqU5fb"/>
      <point x="151" y="0" type="line" identifier="osRzIFK2Cu"/>
      <point x="151" y="703" type="line" identifier="hIFVovVRwe"/>
      <point x="643" y="703" type="line" identifier="Tt6D8zYZmU"/>
      <point x="643" y="1600" type="line" identifier="6xW04auDFu"/>
      <point x="68" y="1600" type="line" identifier="eETO5GBD5v"/>
    </contour>
    <contour>
      <point x="151" y="766" type="line" identifier="PIBVN1PGv1"/>
      <point x="151" y="1537" type="line" identifier="IZIZQr2gYJ"/>
      <point x="560" y="1537" type="line" identifier="2c4LCF1E1R"/>
      <point x="560" y="766" type="line" identifier="1WCnzth1GX"/>
    </contour>
  </outline>
</glyph>
<glyph name="S" format="2">
  <advance width="671"/>
  <unicode hex="0053"/>
  <outline>
    <contour>
      <point x="41" y="0" type="line" identifier="09VlJ0BjUX"/>
      <point x="542" y="0" type="line" identifier="EagWihqFM8"/>
      <point x="631" y="227" type="line"/>
      <point x="631" y="836" type="line" identifier="KfNuQA7eZe"/>
      <point x="123" y="836" type="line" identifier="At364YZFEy"/>
      <point x="123" y="1355" type="line"/>
      <point x="197" y="1540" type="line"/>
      <point x="543" y="1540" type="line" identifier="3ZUkG35meB"/>
      <point x="543" y="1139" type="line" identifier="DTOJhFIl15"/>
      <point x="627" y="1139" type="line" identifier="9KDcrfQ5Ui"/>
      <point x="627" y="1600" type="line" identifier="SaF9ojRFrW"/>
      <point x="131" y="1600" type="line"/>
      <point x="40" y="1362" type="line"/>
      <point x="40" y="771" type="line" identifier="3sQ8t8BZ6b"/>
      <point x="548" y="771" type="line" identifier="yiV6OCBLHg"/>
      <point x="548" y="233" type="line"/>
      <point x="475" y="60" type="line" identifier="9kdl9SYsn8"/>
      <point x="124" y="60" type="line" identifier="yZDWuX8LLe"/>
      <point x="124" y="398" type="line" identifier="jYb9001DTm"/>
      <point x="41" y="398" type="line" identifier="ho4DrS0rdW"/>
    </contour>
  </outline>
</glyph>
<glyph name="U" format="2">
  <advance width="711"/>
  <unicode hex="0055"/>
  <outline>
    <contour>
      <point x="46" y="0" type="line" smooth="yes"/>
      <point x="644" y="0" type="line" smooth="yes"/>
      <point x="644" y="1600" type="line" smooth="yes"/>
      <point x="561" y="1600" type="line" smooth="yes"/>
      <point x="561" y="63" type="line"/>
      <point x="129" y="63" type="line" smooth="yes"/>
      <point x="129" y="1600" type="line"/>
      <point x="46" y="1600" type="line" smooth="yes"/>
    </contour>
  </outline>
</glyph>
<glyph name="V" format="2">
  <advance width="745"/>
  <unicode hex="0056"/>
  <outline>
    <contour>
      <point x="83" y="0" type="line" smooth="yes"/>
      <point x="83" y="1600" type="line" smooth="yes"/>
      <point x="166" y="1600" type="line" smooth="yes"/>
      <point x="166" y="63" type="line"/>
      <point x="525" y="63" type="line" smooth="yes"/>
      <point x="598" y="242" type="line"/>
      <point x="598" y="1600" type="line"/>
      <point x="682" y="1600" type="line" smooth="yes"/>
      <point x="682" y="235" type="line"/>
      <point x="591" y="0" type="line" smooth="yes"/>
    </contour>
  </outline>
</glyph>
<glyph name="X" format="2">
  <advance width="701"/>
  <unicode hex="0058"/>
  <outline>
    <contour>
      <point x="498" y="768" type="line"/>
      <point x="571" y="699" type="line"/>
      <point x="571" y="0" type="line"/>
      <point x="655" y="0" type="line"/>
      <point x="655" y="716" type="line"/>
      <point x="573" y="798" type="line"/>
      <point x="573" y="799" type="line"/>
      <point x="651" y="799" type="line"/>
      <point x="651" y="1600" type="line"/>
      <point x="568" y="1600" type="line"/>
      <point x="568" y="831" type="line"/>
      <point x="500" y="831" type="line"/>
      <point x="200" y="831" type="line"/>
      <point x="133" y="895" type="line"/>
      <point x="133" y="1600" type="line"/>
      <point x="50" y="1600" type="line"/>
      <point x="50" y="878" type="line"/>
      <point x="127" y="800" type="line"/>
      <point x="127" y="800" type="line"/>
      <point x="46" y="800" type="line"/>
      <point x="46" y="0" type="line"/>
      <point x="129" y="0" type="line"/>
      <point x="129" y="768" type="line"/>
      <point x="202" y="768" type="line"/>
    </contour>
  </outline>
</glyph>
<glyph name="Z" format="2">
  <advance width="720"/>
  <unicode hex="005A"/>
  <outline>
    <contour>
      <point x="63" y="0" type="line"/>
      <point x="657" y="0" type="line" identifier="pzdvPTirLJ"/>
      <point x="657" y="328" type="line" identifier="91SxUS0iwG"/>
      <point x="574" y="328" type="line"/>
      <point x="574" y="62" type="line"/>
      <point x="147" y="62" type="line"/>
      <point x="147" y="291" type="line"/>
      <point x="654" y="1480" type="line" identifier="yyb1NCCI5w"/>
      <point x="654" y="1600" type="line" identifier="5FogYRSgkk"/>
      <point x="69" y="1600" type="line" identifier="svlFvrau4c"/>
      <point x="69" y="1286" type="line" identifier="LQ9fBsTy9K"/>
      <point x="146" y="1286" type="line"/>
      <point x="146" y="1538" type="line"/>
      <point x="570" y="1538" type="line"/>
      <point x="570" y="1487" type="line"/>
      <point x="63" y="302" type="line" identifier="teVKnpBcVb"/>
    </contour>
  </outline>
</glyph>
<glyph name="C.wide" format="2">
  <advance width="686"/>
  <outline>
    <contour>
      <point x="61" y="0" type="line" identifier="7lPhzTnk2Z"/>
      <point x="646" y="0" type="line" identifier="qJVLZGnkwh"/>
      <point x="646" y="63" type="line" identifier="Y750RHTvDj"/>
      <point x="144" y="63" type="line" identifier="L2LsGnXiZ2"/>
      <point x="144" y="1233" type="line" identifier="sUWsr03vF4"/>
      <point x="226" y="1537" type="line" identifier="dbOUe6OhxL"/>
      <point x="645" y="1537" type="line" identifier="5BjRbcud80"/>
      <point x="645" y="1600" type="line" identifier="9eJelv8BOw"/>
      <point x="159" y="1600" type="line" identifier="lfZev3ICaC"/>
      <point x="61" y="1241" type="line" identifier="V1EWIdPahq"/>
    </contour>
  </outline>
</glyph>
<glyph name="E.wide" format="2">
  <advance width="674"/>
  <outline>
    <contour>
      <point x="81" y="0" type="line" identifier="fZynkQ4XHB"/>
      <point x="594" y="0" type="line" identifier="FAQNpgUPxV"/>
      <point x="594" y="60" type="line" identifier="5cgTYOhATF"/>
      <point x="164" y="60" type="line" identifier="bWs42DaCgU"/>
      <point x="164" y="771" type="line" identifier="VtD2aADJmn"/>
      <point x="549" y="771" type="line" identifier="PpbsFdHAnS"/>
      <point x="549" y="829" type="line" identifier="8WuC5p8Ax5"/>
      <point x="164" y="829" type="line" identifier="m39IWn9ntA"/>
      <point x="164" y="1541" type="line" identifier="gQ21I4SHQg"/>
      <point x="593" y="1541" type="line" identifier="eqNb2VTwYs"/>
      <point x="593" y="1600" type="line" identifier="qYRmo14Il5"/>
      <point x="81" y="1600" type="line" identifier="HmJIcnLWfC"/>
    </contour>
  </outline>
</glyph>
<glyph name="G.wide" format="2">
  <advance width="715"/>
  <outline>
    <contour>
      <point x="63" y="0" type="line" identifier="7lPhzTnk2Z"/>
      <point x="672" y="0" type="line" identifier="qJVLZGnkwh"/>
      <point x="672" y="818" type="line" identifier="uek1NNj7De"/>
      <point x="416" y="818" type="line" identifier="qcvimxjndX"/>
      <point x="416" y="766" type="line" identifier="EARaY3Su65"/>
      <point x="589" y="766" type="line" identifier="4m6dHLVhZq"/>
      <point x="589" y="62" type="line" identifier="Y750RHTvDj"/>
      <point x="146" y="62" type="line" identifier="L2LsGnXiZ2"/>
      <point x="146" y="1240" type="line" identifier="sUWsr03vF4"/>
      <point x="227" y="1538" type="line" identifier="dbOUe6OhxL"/>
      <point x="671" y="1538" type="line" identifier="5BjRbcud80"/>
      <point x="671" y="1600" type="line" identifier="9eJelv8BOw"/>
      <point x="156" y="1600" type="line" identifier="lfZev3ICaC"/>
      <point x="63" y="1247" type="line" identifier="V1EWIdPahq"/>
    </contour>
  </outline>
</glyph>
<glyph name="I.narrow" format="2">
  <advance width="584"/>
  <outline>
    <contour>
      <point x="39" y="0" type="line" identifier="u8XZE2STzL"/>
      <point x="545" y="0" type="line" identifier="1Ty0JfMohF"/>
      <point x="545" y="63" type="line" identifier="quzaPWszgr"/>
      <point x="333" y="63" type="line" identifier="1m237t4hyw"/>
      <point x="333" y="1537" type="line" identifier="v7N4yg5XNk"/>
      <point x="545" y="1537" type="line" identifier="9RiQmr3G8U"/>
      <point x="545" y="1600" type="line" identifier="jZjJqwR81q"/>
      <point x="39" y="1600" type="line" identifier="PL3Zqx19x8"/>
      <point x="39" y="1537" type="line" identifier="O5ZoWKLuW7"/>
      <point x="250" y="1537" type="line" identifier="zfocDyDTCM"/>
      <point x="250" y="63" type="line" identifier="S4rO5KuHiL"/>
      <point x="39" y="63" type="line" identifier="aCoxe3fSmw"/>
    </contour>
  </outline>
</glyph>
<glyph name="L.wide" format="2">
  <advance width="654"/>
  <outline>
    <contour>
      <point x="83" y="0" type="line" identifier="XkJNfQlnnt"/>
      <point x="591" y="0" type="line" identifier="82EXZEgt46"/>
      <point x="591" y="63" type="line" identifier="cqpSxwFiM3"/>
      <point x="166" y="63" type="line" identifier="MbxRZRd8vz"/>
      <point x="166" y="1600" type="line" identifier="lYiaKSKITt"/>
      <point x="83" y="1600" type="line" identifier="XFf4mMUzYo"/>
    </contour>
  </outline>
</glyph>
<glyph name="M.narrow" format="2">
  <advance width="985"/>
  <outline>
    <contour>
      <point x="404" y="228" type="line" identifier="0Dn4Xpf57M"/>
      <point x="217" y="1537" type="line"/>
      <point x="160" y="1537" type="line"/>
      <point x="160" y="0" type="line"/>
      <point x="84" y="0" type="line"/>
      <point x="84" y="1600" type="line"/>
      <point x="275" y="1600" type="line"/>
      <point x="460" y="289" type="line"/>
      <point x="524" y="289" type="line" identifier="9aKZPM0HPh"/>
      <point x="709" y="1600" type="line"/>
      <point x="901" y="1600" type="line"/>
      <point x="901" y="0" type="line"/>
      <point x="825" y="0" type="line"/>
      <point x="825" y="1537" type="line"/>
      <point x="767" y="1537" type="line"/>
      <point x="580" y="228" type="line" identifier="spdoeeCFft"/>
    </contour>
  </outline>
</glyph>
<glyph name="N.narrow" format="2">
  <advance width="792"/>
  <outline>
    <contour>
      <point x="81" y="0" type="line" identifier="CkwYPPvJLv"/>
      <point x="158" y="0" type="line" identifier="oHTJsN7drZ"/>
      <point x="158" y="1537" type="line" identifier="wfBbYd10Pm"/>
      <point x="207" y="1537" type="line" identifier="MEnBDHq6zU"/>
      <point x="538" y="0" type="line" identifier="3Nbopwznvn"/>
      <point x="710" y="0" type="line" identifier="uKfuudIUvA"/>
      <point x="710" y="1600" type="line" identifier="XRdLFXiM4t"/>
      <point x="633" y="1600" type="line" identifier="MUSJPjCIXg"/>
      <point x="633" y="63" type="line" identifier="VILP20cFmq"/>
      <point x="585" y="63" type="line" identifier="z5b04GDwRN"/>
      <point x="254" y="1600" type="line" identifier="LL64NQ6WBE"/>
      <point x="81" y="1600" type="line" identifier="dzUaaP1sjt"/>
    </contour>
  </outline>
</glyph>
<glyph name="N.wide" format="2">
  <advance width="797"/>
  <outline>
    <contour>
      <point x="70" y="0" type="line" identifier="CkwYPPvJLv"/>
      <point x="153" y="0" type="line" identifier="oHTJsN7drZ"/>
      <point x="153" y="1519" type="line" identifier="wfBbYd10Pm"/>
      <point x="208" y="1519" type="line" identifier="MEnBDHq6zU"/>
      <point x="592" y="0" type="line" identifier="3Nbopwznvn"/>
      <point x="738" y="0" type="line" identifier="uKfuudIUvA"/>
      <point x="738" y="1600" type="line" identifier="XRdLFXiM4t"/>
      <point x="655" y="1600" type="line" identifier="MUSJPjCIXg"/>
      <point x="655" y="85" type="line" identifier="VILP20cFmq"/>
      <point x="599" y="85" type="line" identifier="z5b04GDwRN"/>
      <point x="217" y="1600" type="line" identifier="LL64NQ6WBE"/>
      <point x="70" y="1600" type="line" identifier="dzUaaP1sjt"/>
    </contour>
  </outline>
</glyph>
<glyph name="P.wide" format="2">
  <advance width="689"/>
  <outline>
    <contour>
      <point x="59" y="0" type="line" identifier="EG08jqU5fb"/>
      <point x="143" y="0" type="line" identifier="osRzIFK2Cu"/>
      <point x="143" y="701" type="line" identifier="hIFVovVRwe"/>
      <point x="642" y="701" type="line" identifier="Tt6D8zYZmU"/>
      <point x="642" y="1600" type="line" identifier="6xW04auDFu"/>
      <point x="59" y="1600" type="line" identifier="eETO5GBD5v"/>
    </contour>
    <contour>
      <point x="143" y="765" type="line" identifier="PIBVN1PGv1"/>
      <point x="143" y="1537" type="line" identifier="IZIZQr2gYJ"/>
      <point x="559" y="1537" type="line" identifier="2c4LCF1E1R"/>
      <point x="559" y="765" type="line" identifier="1WCnzth1GX"/>
    </contour>
  </outline>
</glyph>
<glyph name="S.wide" format="2">
  <advance width="659"/>
  <outline>
    <contour>
      <point x="42" y="0" type="line" identifier="09VlJ0BjUX"/>
      <point x="530" y="0" type="line" identifier="EagWihqFM8"/>
      <point x="620" y="227" type="line"/>
      <point x="620" y="832" type="line" identifier="KfNuQA7eZe"/>
      <point x="123" y="832" type="line" identifier="At364YZFEy"/>
      <point x="123" y="1355" type="line"/>
      <point x="198" y="1540" type="line"/>
      <point x="616" y="1540" type="line" identifier="3ZUkG35meB"/>
      <point x="616" y="1600" type="line" identifier="SaF9ojRFrW"/>
      <point x="132" y="1600" type="line"/>
      <point x="40" y="1362" type="line"/>
      <point x="40" y="768" type="line" identifier="3sQ8t8BZ6b"/>
      <point x="536" y="768" type="line" identifier="yiV6OCBLHg"/>
      <point x="536" y="234" type="line"/>
      <point x="463" y="60" type="line" identifier="9kdl9SYsn8"/>
      <point x="42" y="60" type="line" identifier="yZDWuX8LLe"/>
    </contour>
  </outline>
</glyph>
<glyph name="U.alt" format="2">
  <advance width="717"/>
  <outline>
    <contour>
      <point x="571" y="1600" type="line" smooth="yes"/>
      <point x="571" y="63" type="line"/>
      <point x="138" y="63" type="line" smooth="yes"/>
      <point x="138" y="1600" type="line"/>
      <point x="54" y="1600" type="line" smooth="yes"/>
      <point x="54" y="0" type="line" smooth="yes"/>
      <point x="654" y="0" type="line" smooth="yes"/>
      <point x="654" y="1600" type="line" smooth="yes"/>
    </contour>
  </outline>
</glyph>
<glyph name="Y.wide" format="2">
  <advance width="716"/>
  <outline>
    <contour>
      <point x="51" y="0" type="line"/>
      <point x="657" y="0" type="line" identifier="oOtn61SmRY"/>
      <point x="657" y="1600" type="line" identifier="8OglXgblhr"/>
      <point x="573" y="1600" type="line" identifier="db0bPhBdaU"/>
      <point x="573" y="833" type="line" identifier="MTAeavIVWY"/>
      <point x="134" y="833" type="line" identifier="lggLiivmLt"/>
      <point x="134" y="1600" type="line" identifier="UPaHY3UudR"/>
      <point x="51" y="1600" type="line" identifier="ZnCDQVdtyD"/>
      <point x="51" y="771" type="line" identifier="uqAJBjDIOT"/>
      <point x="573" y="771" type="line" identifier="7JgTtdb0jg"/>
      <point x="573" y="62" type="line"/>
      <point x="51" y="62" type="line"/>
    </contour>
  </outline>
</glyph>
<glyph name="Z.wide" format="2">
  <advance width="674"/>
  <outline>
    <contour>
      <point x="42" y="0" type="line"/>
      <point x="632" y="0" type="line" identifier="pzdvPTirLJ"/>
      <point x="632" y="62" type="line"/>
      <point x="127" y="62" type="line"/>
      <point x="127" y="298" type="line"/>
      <point x="627" y="1418" type="line" identifier="yyb1NCCI5w"/>
      <point x="627" y="1600" type="line" identifier="5FogYRSgkk"/>
      <point x="44" y="1600" type="line" identifier="svlFvrau4c"/>
      <point x="44" y="1538" type="line"/>
      <point x="538" y="1538" type="line"/>
      <point x="538" y="1425" type="line"/>
      <point x="42" y="310" type="line" identifier="teVKnpBcVb"/>
    </contour>
  </outline>
</glyph>
<glyph name="five.wide" format="2">
  <advance width="722"/>
  <outline>
    <contour>
      <point x="66" y="0" type="line" identifier="09VlJ0BjUX"/>
      <point x="659" y="0" type="line" identifier="EagWihqFM8"/>
      <point x="659" y="831" type="line" identifier="KfNuQA7eZe"/>
      <point x="147" y="831" type="line" identifier="At364YZFEy"/>
      <point x="147" y="1538" type="line" identifier="BcuLfvaQKC"/>
      <point x="659" y="1538" type="line" identifier="3ZUkG35meB"/>
      <point x="659" y="1600" type="line" identifier="SaF9ojRFrW"/>
      <point x="64" y="1600" type="line" identifier="F4sQEYelA8"/>
      <point x="64" y="769" type="line" identifier="3sQ8t8BZ6b"/>
      <point x="576" y="769" type="line" identifier="yiV6OCBLHg"/>
      <point x="576" y="62" type="line" identifier="9kdl9SYsn8"/>
      <point x="66" y="62" type="line" identifier="yZDWuX8LLe"/>
    </contour>
  </outline>
</glyph>
<glyph name="nine.wide" format="2">
  <advance width="711"/>
  <outline>
    <contour>
      <point x="58" y="0" type="line" identifier="oGvEEuxnYv"/>
      <point x="661" y="0" type="line" identifier="xR3pEHbMJx"/>
      <point x="661" y="1600" type="line" identifier="uiw6aBUf4P"/>
      <point x="58" y="1600" type="line" identifier="jtYkxiUX6G"/>
      <point x="58" y="769" type="line" identifier="2G5L37c87I"/>
      <point x="577" y="769" type="line"/>
      <point x="577" y="62" type="line"/>
      <point x="58" y="62" type="line"/>
    </contour>
    <contour>
      <point x="142" y="831" type="line"/>
      <point x="142" y="1538" type="line"/>
      <point x="577" y="1538" type="line"/>
      <point x="577" y="831" type="line"/>
    </contour>
  </outline>
</glyph>
<glyph name="one.narrow" format="2">
  <advance width="627"/>
  <outline>
    <contour>
      <point x="38" y="0" type="line"/>
      <point x="591" y="0" type="line" identifier="CURJAw79Zl"/>
      <point x="591" y="63" type="line" identifier="0DUCJo8xIi"/>
      <point x="357" y="63" type="line" identifier="5nmxQXofSG"/>
      <point x="357" y="1600" type="line" identifier="4rjIeWbSbx"/>
      <point x="40" y="1600" type="line"/>
      <point x="40" y="1537" type="line"/>
      <point x="274" y="1537" type="line"/>
      <point x="274" y="63" type="line"/>
      <point x="38" y="63" type="line"/>
    </contour>
  </outline>
</glyph>
<glyph name="seven.alt" format="2">
  <advance width="677"/>
  <outline>
    <contour>
      <point x="72" y="1600" type="line" identifier="jiO9eX9U07"/>
      <point x="608" y="1600" type="line" identifier="wgpFs1yguc"/>
      <point x="608" y="0" type="line" identifier="d5Di3vNzni"/>
      <point x="524" y="0" type="line" identifier="46RrD1WET2"/>
      <point x="524" y="1537" type="line" identifier="zFXsE8BUYG"/>
      <point x="155" y="1537" type="line" identifier="NQmE31PUns"/>
      <point x="154" y="981" type="line" identifier="qiXxY6YhCq"/>
      <point x="72" y="981" type="line" identifier="7exNZv1XSc"/>
    </contour>
  </outline>
</glyph>
<glyph name="six.wide" format="2">
  <advance width="705"/>
  <outline>
    <contour>
      <point x="52" y="0" type="line" identifier="uiw6aBUf4P"/>
      <point x="659" y="0" type="line" identifier="jtYkxiUX6G"/>
      <point x="659" y="820" type="line" identifier="2G5L37c87I"/>
      <point x="135" y="820" type="line"/>
      <point x="135" y="1362" type="line"/>
      <point x="210" y="1538" type="line"/>
      <point x="658" y="1538" type="line"/>
      <point x="658" y="1600" type="line" identifier="oGvEEuxnYv"/>
      <point x="136" y="1600" type="line" identifier="xR3pEHbMJx"/>
      <point x="52" y="1367" type="line" identifier="KnMArb0tv8"/>
    </contour>
    <contour>
      <point x="575" y="767" type="line"/>
      <point x="575" y="62" type="line"/>
      <point x="135" y="62" type="line"/>
      <point x="135" y="767" type="line"/>
    </contour>
  </outline>
</glyph>
<glyph name="three.wide" format="2">
  <advance width="764"/>
  <outline>
    <contour>
      <point x="68" y="0" type="line" identifier="O9abUc1nmN"/>
      <point x="681" y="0" type="line" identifier="kMJYMTfXCq"/>
      <point x="681" y="834" type="line" identifier="su2XmdS8e8"/>
      <point x="623" y="834" type="line" identifier="JQaOzDQqlF"/>
      <point x="623" y="1600" type="line" identifier="xg8x2Ki40p"/>
      <point x="77" y="1600" type="line" identifier="pE1XSRiy68"/>
      <point x="77" y="1538" type="line" identifier="7ogBYufWpl"/>
      <point x="540" y="1538" type="line" identifier="RHLvSX2Jv6"/>
      <point x="540" y="835" type="line" identifier="iic1IBkDqp"/>
      <point x="153" y="835" type="line" identifier="lRLJEhXMlO"/>
      <point x="153" y="773" type="line" identifier="8aKgEELrVU"/>
      <point x="598" y="773" type="line" identifier="Dm8zjmbhNr"/>
      <point x="598" y="62" type="line" identifier="xv9CFHiFgB"/>
      <point x="68" y="62" type="line" identifier="YajKQV3MHP"/>
    </contour>
  </outline>
</glyph>
<glyph name="two.wide" format="2">
  <advance width="716"/>
  <outline>
    <contour>
      <point x="66" y="0" type="line"/>
      <point x="653" y="0" type="line" identifier="pzdvPTirLJ"/>
      <point x="653" y="62" type="line"/>
      <point x="149" y="62" type="line"/>
      <point x="149" y="767" type="line"/>
      <point x="647" y="767" type="line" identifier="yyb1NCCI5w"/>
      <point x="647" y="1600" type="line" identifier="5FogYRSgkk"/>
      <point x="69" y="1600" type="line" identifier="svlFvrau4c"/>
      <point x="69" y="1538" type="line"/>
      <point x="564" y="1538" type="line"/>
      <point x="564" y="829" type="line"/>
      <point x="66" y="829" type="line" identifier="teVKnpBcVb"/>
    </contour>
  </outline>
</glyph>
